<?xml version="1.0" encoding="utf-8"?>
<!-- Generator: Adobe Illustrator 27.5.0, SVG Export Plug-In . SVG Version: 6.00 Build 0)  -->
<svg version="1.1" xmlns="http://www.w3.org/2000/svg" xmlns:xlink="http://www.w3.org/1999/xlink" x="0px" y="0px"
	 viewBox="0 0 500 500" style="enable-background:new 0 0 500 500;" xml:space="preserve">
<g id="BACKGROUND">
	<rect x="-0.212" y="0" style="fill:#EDEDED;" width="500" height="500"/>
</g>
<g id="OBJECTS">
	<g>
		<g>
			<g>
				<path style="fill:#FCF5B7;" d="M394.518,194.946c5.159-11.543,8.03-24.331,8.03-37.792c0-51.21-41.514-92.724-92.724-92.724
					c-23.268,0-44.533,8.572-60.813,22.729c-3.349-21.881-22.252-38.642-45.07-38.642c-21.057,0-38.771,14.278-44.013,33.678
					c-0.426-0.005-0.851-0.016-1.278-0.016c-58.646,0-106.189,47.543-106.189,106.189c0,23.899,7.897,45.952,21.221,63.697
					c-14.976,12.753-24.939,31.212-26.506,52.021h399.11c-3.693-20.079-13.769-37.923-28.047-51.351
					c4.005-5.982,6.344-13.174,6.344-20.913C424.581,213.631,411.674,198.453,394.518,194.946z"/>
				<path style="fill:#A0E1C0;" d="M46.952,309.859c0,41.915,33.979,75.893,75.893,75.893c15.001,0,28.973-4.37,40.747-11.881
					c19.658,18.019,45.854,29.018,74.623,29.018c18.704,0,36.32-4.655,51.761-12.86c16.767,15.573,39.227,25.101,63.915,25.101
					c51.886,0,93.948-42.062,93.948-93.948c0-5.838-0.535-11.551-1.554-17.094H47.175C47.031,305.993,46.952,307.917,46.952,309.859
					z"/>
				<g>
					<g>
						<rect x="102.769" y="307.594" style="fill:#FFFFFF;" width="60.88" height="2.004"/>
					</g>
					<g>
						<rect x="184.081" y="307.594" style="fill:#FFFFFF;" width="60.88" height="2.004"/>
					</g>
					<g>
						<rect x="181.162" y="316.813" style="fill:#FFFFFF;" width="60.88" height="2.004"/>
					</g>
					<g>
						<rect x="262.474" y="316.813" style="fill:#FFFFFF;" width="60.88" height="2.004"/>
					</g>
					<g>
						<rect x="324.188" y="320.821" style="fill:#FFFFFF;" width="41.282" height="2.004"/>
					</g>
					<g>
						<rect x="226.405" y="320.821" style="fill:#FFFFFF;" width="41.282" height="2.004"/>
					</g>
					<g>
						<rect x="133" y="320.821" style="fill:#FFFFFF;" width="41.282" height="2.004"/>
					</g>
					<g>
						<rect x="263.308" y="307.594" style="fill:#FFFFFF;" width="158.872" height="2.004"/>
					</g>
					<g>
						<rect x="302.922" y="312.003" style="fill:#FFFFFF;" width="91.737" height="2.004"/>
					</g>
					<g>
						<rect x="159.479" y="312.003" style="fill:#FFFFFF;" width="127.598" height="2.004"/>
					</g>
					<g>
						<rect x="75.248" y="312.003" style="fill:#FFFFFF;" width="69.22" height="2.004"/>
					</g>
				</g>
			</g>
			<g>
				<path style="fill:#FFFFFF;" d="M339.216,180.718h20.949c1.464-13.545-0.572-27.643-5.845-39.936h-20.659
					c-1.757,0-3.181-1.424-3.181-3.181v-0.064c0-1.757,1.424-3.181,3.181-3.181h17.512c-2.102-3.786-4.543-7.333-7.317-10.558
					h-58.787c-2.384,0-4.317-1.933-4.317-4.317v-0.087c0-2.384,1.933-4.317,4.317-4.317h49.349c-0.655-0.474-1.321-0.936-2-1.38
					c-15.7-10.275-35.621-11.452-53.44-6.451c-14.613,4.102-27.994,12.008-40.334,21.399c-12.34-9.391-25.721-17.298-40.335-21.399
					c-17.819-5.001-37.74-3.824-53.44,6.451c-4.78,3.129-8.977,7.026-12.58,11.479h33.065c2.635,0,4.771,2.136,4.771,4.772v0.096
					c0,2.635-2.136,4.772-4.772,4.772h-39.487c-5.709,10.471-8.837,22.723-9.178,35.039h65.556c1.757,0,3.181,1.424,3.181,3.181
					v0.064c0,1.757-1.424,3.181-3.181,3.181h-65.477c0.2,3.871,0.67,7.719,1.437,11.487c0.145,0.714,0.305,1.423,0.467,2.131H228.7
					c2.635,0,4.772,2.136,4.772,4.772v0.096c0,2.635-2.136,4.772-4.772,4.772H121.476c7.402,20.991,22.343,38.759,40.017,51.411
					h79.941c2.761,0,4.999,2.238,4.999,4.999v0.101c0,2.761-2.238,4.999-4.999,4.999h-64.206
					c17.348,10.255,36.277,18.76,55.355,23.513c1.896,0.472,3.847,0.684,5.8,0.684h0.498c1.945,0,3.887-0.21,5.774-0.68
					c23.696-5.895,47.168-17.578,67.662-31.211c20.988-13.962,38.692-35.045,45.495-60.242h-18.598
					c-3.388,0-6.135-2.747-6.135-6.135v-0.124C333.081,183.465,335.828,180.718,339.216,180.718z"/>
			</g>
			<g>
				<g>
					<g>
						<g>
							<path style="fill:#E45348;" d="M421.712,370.587l-344.158-0.142l-7.038,3.066c-0.879,14.564,7.103,36.851,16.917,48.231
								c9.214,10.685,22.439,20.098,36.859,21.539c26.012,2.598,41.374-20.805,65.585-23.462
								c19.764-2.169,35.453,6.867,50.67,18.264c5.736,4.296,11.653,9.257,18.532,11.61c13.172,4.505,27.282-0.216,39.129-6.161
								c7.036-3.531,14.521-5.789,22.457-5.03c8.709,0.833,14.996,4.059,22.798-1.507c6.56-4.68,12.465-12.253,21.139-12.693
								c7.297-0.37,12.241,4.176,24.977,4.176C409.892,428.477,423.257,390.737,421.712,370.587z"/>
						</g>
					</g>
					<g>
						<path style="fill:#111A32;" d="M95.828,372.593l19.673,2.243c1.807,0.206,3.477,1.23,4.297,2.853
							c1.839,3.637-1.99,6.551-5.384,7.653c-3.28,1.065-7.239,1.959-8.273,5.443c-0.622,2.095,0.136,4.347,1.699,5.874
							c3.033,2.962,7.218,3.138,11.175,3.253l42.574,1.232c6.393,0.185,14.044,1.3,18.105,5.548c2.344,2.452,5.68,3.681,9.013,3.051
							c18.446-3.489,37.164-5.537,55.928-6.118c10.859-0.336,22.909,0.273,30.689,7.856c3.35,3.265,5.572,7.557,8.987,10.754
							c5.704,5.34,14.035,6.939,21.842,6.612c21.736-0.911,40.701-14.486,61.559-20.669c7.026-2.083,14.311-3.334,21.132-6.014
							c6.82-2.68,13.345-7.069,16.612-13.628c2.459-4.936,2.538-11.236-0.057-15.943H95.828z"/>
					</g>
					<g>
						<g>
							<polygon style="fill:#111A32;" points="465.702,368.923 402.319,322.611 97.7,322.611 34.298,368.935 34.711,375.863 
								464.976,375.863 							"/>
						</g>
						<g>
							<g>
								<polygon style="fill:#283474;" points="410.362,328.488 89.657,328.488 97.7,322.611 402.319,322.611 								"/>
							</g>
							<g>
								<polygon style="fill:#283474;" points="421.119,336.348 78.899,336.348 88.027,329.678 411.991,329.678 								"/>
							</g>
							<g>
								<polygon style="fill:#FCF5B7;" points="129.217,335.169 134.315,329.678 88.027,329.678 80.512,335.169 								"/>
							</g>
							<g>
								<polygon style="fill:#FCF5B7;" points="416.435,332.925 411.991,329.678 290.986,329.678 292.218,332.925 								"/>
							</g>
							<g>
								<polygon style="fill:#283474;" points="433.423,345.338 66.595,345.338 77.043,337.704 422.975,337.704 								"/>
							</g>
							<g>
								<polygon style="fill:#FCF5B7;" points="139.188,342.865 142.639,337.704 77.043,337.704 69.979,342.865 								"/>
							</g>
							<g>
								<polygon style="fill:#FCF5B7;" points="429.38,342.384 422.975,337.704 316.555,337.704 318.288,342.384 								"/>
							</g>
							<g>
								<polygon style="fill:#283474;" points="447.633,355.721 52.384,355.721 64.46,346.897 435.558,346.897 								"/>
							</g>
							<g>
								<polygon style="fill:#FCF5B7;" points="77.222,352.163 83.753,346.897 64.46,346.897 57.253,352.163 								"/>
							</g>
							<g>
								<polygon style="fill:#FCF5B7;" points="444.301,353.285 435.558,346.897 288.096,346.897 289.975,353.285 								"/>
							</g>
							<g>
								<polygon style="fill:#283474;" points="464.231,367.848 35.785,367.848 49.903,357.533 450.114,357.533 								"/>
							</g>
						</g>
					</g>
					<g>
						<path style="fill:#283474;" d="M162.91,379.726h258.608c0.316-3.166,0.395-6.157,0.209-8.845H168.286L162.91,379.726z"/>
						<path style="fill:#283474;" d="M345.497,397.244l-8.067-15.25H70.774c0.353,2.916,0.947,6.049,1.797,9.262h269.759
							L345.497,397.244z"/>
						<polygon style="fill:#FC9F91;" points="347.559,401.142 345.497,397.244 347.559,401.142 						"/>
						<path style="fill:#FC9F91;" d="M345.497,397.244l-3.168-5.988H72.571c0.869,3.288,2.006,6.637,3.378,9.886h271.61
							L345.497,397.244z"/>
						<path style="fill:#283474;" d="M325.507,419.107h80.839c2.699-3.23,5.093-7.113,7.152-11.324h-91.26L325.507,419.107z"/>
						<polygon style="fill:#FC9F91;" points="251.513,407.783 251.258,419.107 322.237,407.783 						"/>
						<polygon style="fill:#FC9F91;" points="324.394,419.107 325.507,419.107 322.237,407.783 						"/>
						<polygon style="fill:#FC9F91;" points="251.258,419.107 324.394,419.107 322.237,407.783 						"/>
					</g>
				</g>
				<g>
					<g>
						<g>
							<path style="fill:#E45348;" d="M110.863,321.535c-5.289-39.62,2.891-86.06,23.657-134.297
								c17.209-39.975,42.461-79.435,69.283-108.262l0.522,0.486c-43.962,47.249-104.943,150.683-92.756,241.979L110.863,321.535z"
								/>
						</g>
						<g>
							<g>
								<rect x="108" y="236.72" style="fill:#FEFEED;" width="7.502" height="90.2"/>
							</g>
							<g>
								<rect x="105.552" y="236.72" style="fill:#283474;" width="7.502" height="90.2"/>
							</g>
						</g>
						<g>
							<path style="fill:#E45348;" d="M100.792,309.425c-0.142,0-0.281-0.063-0.375-0.183c-0.162-0.206-0.125-0.505,0.082-0.667
								c1.108-0.866,2.202-1.814,2.351-3.033c0.181-1.487-1.011-2.659-2.274-3.9c-0.446-0.437-0.907-0.89-1.303-1.36
								c-2.176-2.575-2.682-6.554-1.288-10.136c1.133-2.913,3.393-5.561,6.717-7.868c0.996-0.691,2.045-1.326,3.06-1.942
								c1.32-0.799,2.685-1.626,3.921-2.572c1.748-1.337,3.957-3.528,4.547-6.373c0.545-2.623-0.418-5.101-1.04-6.344
								c-0.117-0.235-0.022-0.52,0.213-0.638c0.235-0.118,0.52-0.021,0.638,0.213c0.677,1.353,1.723,4.058,1.12,6.962
								c-0.515,2.478-2.209,4.876-4.901,6.935c-1.277,0.977-2.664,1.817-4.006,2.63c-1.002,0.607-2.038,1.236-3.01,1.91
								c-3.165,2.197-5.309,4.698-6.373,7.432c-1.269,3.262-0.827,6.865,1.128,9.178c0.368,0.435,0.793,0.853,1.243,1.295
								c1.371,1.348,2.789,2.741,2.551,4.692c-0.193,1.58-1.444,2.677-2.708,3.666C100.997,309.393,100.894,309.425,100.792,309.425
								z"/>
						</g>
						<g>
							<path style="fill:#E45348;" d="M116.138,248.365h-11.502c-0.263,0-0.475-0.213-0.475-0.475c0-0.263,0.213-0.475,0.475-0.475
								h11.502c0.263,0,0.475,0.213,0.475,0.475C116.613,248.153,116.401,248.365,116.138,248.365z"/>
						</g>
						<g>
							<path style="fill:#E45348;" d="M116.291,250.813H104.79c-0.263,0-0.475-0.213-0.475-0.475s0.213-0.475,0.475-0.475h11.501
								c0.263,0,0.475,0.213,0.475,0.475S116.553,250.813,116.291,250.813z"/>
						</g>
						<g>
							<path style="fill:#E45348;" d="M116.291,257.393H104.79c-0.263,0-0.475-0.212-0.475-0.475c0-0.263,0.213-0.475,0.475-0.475
								h11.501c0.263,0,0.475,0.212,0.475,0.475C116.766,257.18,116.553,257.393,116.291,257.393z"/>
						</g>
						<g>
							<path style="fill:#E45348;" d="M116.291,259.841H104.79c-0.263,0-0.475-0.212-0.475-0.475s0.213-0.475,0.475-0.475h11.501
								c0.263,0,0.475,0.213,0.475,0.475S116.553,259.841,116.291,259.841z"/>
						</g>
						<g>
							<path style="fill:#E45348;" d="M116.291,262.136H104.79c-0.263,0-0.475-0.213-0.475-0.475s0.213-0.475,0.475-0.475h11.501
								c0.263,0,0.475,0.213,0.475,0.475S116.553,262.136,116.291,262.136z"/>
						</g>
					</g>
					<g>
						<g>
							<g>
								<path style="fill:#E45348;" d="M214.282,98.053c-7.183-4.021-14.326-7.71-21.41-10.91
									c3.249-5.532,5.889-10.783,7.865-15.693c4.682,1.457,10.77,2.27,17.317,2.871C216.123,81.101,215.016,89.263,214.282,98.053
									z"/>
							</g>
							<g>
								<g>
									<path style="fill:#283474;" d="M193.132,87.359l-0.342-0.329c6.705-6.982,15.682-11.534,25.277-12.815l0.063,0.471
										C208.64,75.953,199.763,80.453,193.132,87.359z"/>
								</g>
								<g>
									
										<rect x="207.314" y="69.93" transform="matrix(0.8928 -0.4505 0.4505 0.8928 -15.9444 102.581)" style="fill:#283474;" width="0.475" height="29.719"/>
								</g>
							</g>
						</g>
						<g>
							<path style="fill:#FAB01E;" d="M240.078,117.76c1.191,1.292,3.303,1.335,4.884,0.569c1.581-0.765,2.751-2.16,3.855-3.527
								c-0.969,0.908-2.317,1.397-3.642,1.322s-2.61-0.713-3.47-1.724c-0.816-0.958-1.249-2.21-2.136-3.104
								c-1.206-1.214-3.074-1.558-4.77-1.333c-1.696,0.225-3.282,0.941-4.865,1.591c-1.583,0.651-3.237,1.252-4.948,1.227
								c-2.767-0.04-5.421-1.892-6.413-4.475c-0.691-1.799-0.61-3.79-0.956-5.686c-0.346-1.896-1.345-3.911-3.19-4.467
								c1.23,0.807,1.326,2.536,1.346,4.007c0.045,3.188,0.383,6.493,2,9.24c1.617,2.748,4.81,4.784,7.939,4.17
								c2.736-0.537,4.895-2.914,7.668-3.207c2.027-0.214,4.134,0.85,5.166,2.608C239.085,115.889,239.356,116.977,240.078,117.76z"
								/>
						</g>
						<g>
							<path style="fill:#FAB01E;" d="M215.629,106.224c1.205,1.468,2.986,2.344,4.788,2.942c1.802,0.598,3.68,0.961,5.454,1.638
								c1.774,0.677,3.49,1.724,4.49,3.337c0.662,1.069,0.969,2.312,1.422,3.485c0.453,1.173,1.119,2.348,2.225,2.945
								c-0.75-1.595-1.042-3.359-1.472-5.069c-0.429-1.71-1.039-3.445-2.273-4.705c-1.534-1.566-3.787-2.161-5.944-2.55
								c-2.157-0.389-4.406-0.663-6.287-1.789c-2.441-1.461-3.949-4.354-3.746-7.192
								C213.698,101.645,214.075,104.331,215.629,106.224z"/>
						</g>
					</g>
				</g>
				<g>
					<g>
						<rect x="381.43" y="236.72" style="fill:#FEFEED;" width="7.502" height="90.2"/>
					</g>
					<g>
						<rect x="385.102" y="236.72" style="fill:#283474;" width="7.502" height="90.2"/>
					</g>
				</g>
			</g>
			<g>
				<g>
					<g>
						<path style="fill:#FAB01E;" d="M248.578,137.179c1.838-2.01,4.336-3.297,6.883-4.26c7.79-2.948,16.576-3.132,24.513-0.631
							c2.855,0.9,4.997,3.252,5.663,6.17c1.537,6.744,3.708,13.344,6.477,19.682c-16.633-4.102-34.215-4.307-50.939-0.592
							C244.842,151.239,243.654,142.564,248.578,137.179z"/>
					</g>
					<g>
						<path style="fill:#E45348;" d="M245.133,144c-1.248,4.497-1.61,9.506-3.96,13.547c16.724-3.714,34.306-3.51,50.939,0.592
							c-2.33-5.336-4.232-10.857-5.694-16.493C273.528,135.751,257.522,136.908,245.133,144z"/>
					</g>
					<g>
						<path style="fill:#FAB01E;" d="M282.953,173.809c4.086-1.429,8.109-3.38,11.083-6.524c2.975-3.145,4.754-7.665,3.766-11.88
							c-1.149-4.9-5.617-8.293-10.139-10.502c-12.354-6.036-27.44-6.162-39.894-0.335c-6.095,2.852-12.046,7.924-12.43,14.643
							c-0.277,4.853,2.559,9.516,6.468,12.405c3.909,2.889,8.758,4.226,13.57,4.906C264.61,177.825,274.151,176.886,282.953,173.809
							z"/>
					</g>
					<g>
						<path style="fill:#111A32;" d="M277.348,173.052c2.831-1.162,5.618-2.749,7.678-5.306c2.061-2.558,3.293-6.235,2.609-9.662
							c-0.796-3.986-3.891-6.745-7.024-8.542c-8.559-4.909-19.01-5.012-27.638-0.273c-4.223,2.32-8.345,6.445-8.611,11.91
							c-0.192,3.947,1.772,7.74,4.481,10.089c2.708,2.35,6.067,3.438,9.402,3.99C264.64,176.319,271.25,175.555,277.348,173.052z"/>
					</g>
				</g>
				<g>
					<g>
						<rect x="200.711" y="120.307" style="fill:#283474;" width="0.951" height="197.814"/>
					</g>
					<g>
						<g>
							<path style="fill:#111A32;" d="M320.736,287.975c-0.39,2.27-1.807,5.916-3.753,7.346c-3.034,2.229-7.095,3.099-11.107,3.575
								c-7.457,0.885-15.146,0.603-22.664,1.214c-7.518,0.611-15.102,2.225-20.724,6.387c-4.667,3.456-7.667,8.989-7.107,14.587
								l90.771,7.711c8.349,0.051,11.68-2.075,14.675-7.574c3.792-6.964,3.744-25.462,0.569-33.246H320.736z"/>
						</g>
						<g>
							<path style="fill:#283474;" d="M298.06,286.678c-0.39,2.537,2.773,6.191,0.827,7.789c-3.033,2.491-7.095,3.463-11.107,3.995
								c-7.457,0.989-15.146,0.674-22.664,1.357c-7.519,0.683-15.103,2.487-20.724,7.138c-4.667,3.862-7.667,10.046-7.107,16.302
								l90.771,8.618c8.348,0.057,11.68-2.319,14.675-8.464c3.792-7.783,3.744-26.738,0.569-35.437L298.06,286.678z"/>
						</g>
					</g>
					<g>
						<g>
							<path style="fill:#E45348;" d="M295.065,211.335c6.799-2.575,13.607-5.829,15.583-12.826
								c0.972-3.441,0.415-10.221-2.379-12.453c-2.505-2.001-6.041-1.97-9.222-1.57c-7.078,0.891-13.91,3.118-20.885,4.616
								c-13.916,2.988-28.439,2.93-42.374,0.048c-0.555,5.902-3.321,12.201-5.046,17.863c3.566,1.447,8.34,3.04,12.038,4.14
								C259.738,216.195,278.52,217.601,295.065,211.335z"/>
						</g>
						<g>
							<path style="fill:#FC9F91;" d="M231.958,206.419c1.725-5.662,3.276-11.366,3.83-17.268
								c-11.043-2.284-25.765-9.133-36.37-15.47c-1.178-2.989-4.241-5.192-6.337-9.556c-1.797-3.743-2.718-3.358-5.035-6.804
								c-0.786,0.322-1.198,1.419-1.147,2.267c0.051,0.848,0.352,1.679,0.79,2.407c1.726,2.872,1.463,3.62,2.024,6.171
								c0.035,0.471-0.201,0.796-1.006,0.901c-3.699-2.396-5.724-4.139-9.851-8.048c-0.534-0.506-1.395-0.942-1.974-0.488
								c-0.553,0.433-0.316,1.234,0.081,1.874c-0.504-0.582-1.205-0.99-1.963-1.126c-0.612-0.11-1.123,0.465-1.007,1.076
								c0.108,0.568,0.346,1.112,0.695,1.573c-0.993,0.077-1.428,0.664-1.176,1.627c0.252,0.963,0.734,1.992,1.475,2.657
								c-0.558-0.275-1.529,0.026-1.635,0.638c-0.106,0.613,0.583,1.838,0.941,2.346c3.25,4.605,6.023,8.037,10.764,10.526
								c2.347,1.232,4.871,1.958,7.141,2.196c1.085,0.114,2.129,0.452,3.035,1.059C206.488,192.507,220.786,201.888,231.958,206.419
								z"/>
						</g>
						<g>
							<path style="fill:#FAB01E;" d="M234.691,209.678c0.512-0.148,0.78-0.696,0.982-1.189c2.38-5.799,4.134-11.855,5.222-18.029
								c0.119-0.677,0.199-1.468-0.278-1.963c-0.265-0.275-0.648-0.393-1.014-0.502c-1.611-0.477-3.222-0.954-4.833-1.432
								c-0.969-0.287-1.976,0.274-2.256,1.245c-1.628,5.648-3.596,11.197-5.89,16.609c-0.515,1.215,0.078,2.611,1.319,3.06
								l5.649,2.047C233.946,209.653,234.329,209.783,234.691,209.678z"/>
						</g>
					</g>
					<g>
						<g>
							<path style="fill:#FAB01E;" d="M286.325,190.085c2.486-1.453,5.031-2.902,7.588-4.319c8.234-4.566,18.476-3.794,25.74,2.195
								c12.452,10.265,21.941,24.082,28.91,38.868c9.251,19.626,14.109,40.988,18.665,62.202
								c-24.739-0.003-44.985,0.424-69.724,0.422c-2.658-25.047-11.144-48.755-20.494-72.175
								C272.967,207.15,276.911,195.588,286.325,190.085z"/>
						</g>
						<g>
							<path style="fill:#283474;" d="M288.859,189.722c-5.356,4.623-8.732,11.466-9.142,18.529
								c-0.193,3.323,0.266,6.739,1.764,9.711c1.498,2.972,4.112,5.458,7.309,6.386c4.882,1.417,10.273-1.061,13.516-4.976
								c3.243-3.915,4.693-9.003,5.549-14.014c0.64-3.745,0.986-7.645-0.049-11.3c-1.035-3.655-3.695-7.043-7.364-8.03
								C296.367,184.93,292.054,186.964,288.859,189.722z"/>
						</g>
						<g>
							<rect x="295.9" y="287.214" style="fill:#E45348;" width="72.221" height="5.049"/>
						</g>
					</g>
					<g>
						<path style="fill:#FC9F91;" d="M299.61,190.144c-0.277-0.338-0.573-0.633-0.88-0.895l0-0.001
							c-0.007-0.004-0.014-0.01-0.021-0.014c-0.322-0.271-0.66-0.495-1.008-0.685c-5.912-4.255-12.789-13.742-15.825-20.217
							c-3.399,2.312-8.054,9.682-9.388,14.528c3.471,4.895,7.503,10.905,10.855,16.666c-1.212,4.073-1.271,8.577-0.29,12.738
							c0.884,3.75,3.238,7.709,6.595,7.665c2.148-0.029,4.003-1.721,5.467-3.541c4.295-5.338,6.793-12.566,6.863-19.861
							C302.003,194.053,301.081,191.939,299.61,190.144z"/>
						<path style="fill:#111A32;" d="M283.212,187.651c2.887-5.774,1.138-12.472-2.563-18.316c-3.208,2.991-6.981,9.241-8.16,13.525
							c1.894,2.672,3.954,5.679,5.981,8.793C280.468,191.22,282.152,190.123,283.212,187.651z"/>
						<g>
							<path style="fill:#E45348;" d="M282.255,170.18c2.48-2.935,3.186-7.165,2.152-10.867c-1.034-3.701-3.679-6.848-6.958-8.853
								c-3.279-2.004-7.15-2.92-10.991-3.009c-4.151-0.097-8.346,0.757-12.038,2.657s-6.862,4.863-8.828,8.52
								c-1.304,2.425-2.026,5.529-0.546,7.851c0.846,1.326,2.281,2.17,3.755,2.72c4.313,1.611,9.082,1.072,13.679,0.816
								c5.881-0.328,11.789-0.155,17.64,0.516L282.255,170.18z"/>
							<g>
								<path style="fill:#FC9F91;" d="M283.548,166.89c1.127-1.774,1.795-4.018,1.617-6.142c-0.199-2.369-2.629-6.36-5.273-3.895
									c-1.185-2.267-2.7-4.349-4.343-5.395c-6.268-3.99-15.323-2.811-19.891-0.602c-4.568,2.209-10.024,7.751-9.223,13.662
									c1.974,3.305,2.069,6.341,5.582,7.926c-0.028,1.953,0.283,5.894,0.256,7.848c-0.005,0.359-0.008,0.729,0.132,1.06
									c0.386,0.915,1.601,1.079,2.592,1.026c0.744-0.04,1.58-0.089,2.227,0.204c0.809,1.354,1.617,2.707,2.426,4.061
									c0.261,0.437,1.66,1.259,1.921,1.696c0.63,1.055,0.123,1.726,0.753,2.782c0.651,1.089,1.35,2.227,2.468,2.85
									c2.202,1.228,4.928-0.016,7.129-1.247c5.466-3.057,9.813-5.461,11.28-11.475c1.02-4.182-0.872-8.426-1.128-12.648
									C282.649,168.115,283.143,167.528,283.548,166.89z"/>
							</g>
							<g>
								<path style="fill:#E45348;" d="M238.305,164.6c1.539,0.287,3.208-0.252,4.288-1.386c-2.492-1.108-4.446-3.363-5.187-5.987
									c2.223,0.878,4.85,0.657,6.895-0.581c-0.85-0.398-1.498-1.203-1.707-2.118c3.209-1.072,6.128-2.856,9.247-4.166
									c3.119-1.31,6.633-2.14,9.877-1.181c-4.132,0.556-8.037,2.661-10.773,5.807c-2.736,3.146-4.279,7.305-4.256,11.474
									C243.859,167.558,240.405,166.79,238.305,164.6z"/>
							</g>
							<g>
								<path style="fill:#E45348;" d="M274.516,157.469c-1.328,0.291-2.656,0.581-3.984,0.872c2.907,1.324,5.196,3.942,6.12,7
									c1.023-0.363,2.165-0.383,3.201-0.056c-0.639-2.128-1.282-4.274-1.472-6.488s0.103-4.528,1.23-6.442
									c-4.723-4-11.339-5.659-17.391-4.36c1.391,3.845,5.326,6.62,9.415,6.64c-1.468,0.26-2.936,0.521-4.404,0.781
									C269.609,156.262,272.045,156.948,274.516,157.469z"/>
							</g>
						</g>
					</g>
					<g>
						<g>
							<path style="fill:#111A32;" d="M264.313,162.02c0.105-0.269,0.21-0.537,0.317-0.805c-1.685-0.772-3.642-0.96-5.43-0.462
								c-2.412,0.671-4.45,2.565-5.297,4.922c0.521,0.236,1.042,0.472,1.562,0.708c0.466-2.142,2.128-3.982,4.212-4.664
								C261.186,161.225,262.872,161.361,264.313,162.02z"/>
						</g>
						<g>
							<path style="fill:#111A32;" d="M259.399,166.673c-0.152-0.393-0.415-0.794-0.826-0.891c-0.507-0.119-1.019,0.315-1.143,0.821
								c-0.125,0.505,0.047,1.038,0.287,1.5c0.171,0.33,0.391,0.655,0.718,0.831c0.327,0.176,0.784,0.158,1.022-0.128
								c0.156-0.187,0.192-0.447,0.197-0.691C259.663,167.624,259.577,167.131,259.399,166.673z"/>
						</g>
						<g>
							<path style="fill:#111A32;" d="M266.54,177.115c-0.155-1.23-1.021-2.669-2.039-3.167c-0.235-0.115-0.466,0.127-0.35,0.361
								c0.374,0.754,0.346,1.67,0.227,2.487c-0.133,0.912-0.618,1.732-1.335,2.311c-0.921,0.744-1.68,1.281-2.798,1.553
								c-0.508,0.124-1.034,0.217-1.49,0.473c-0.124,0.07-0.24,0.157-0.346,0.255c-0.699,0.142-1.271,0.737-1.444,1.435
								c-0.184,0.739,0.026,1.539,0.447,2.174c0.421,0.635,1.319,0.813,1.975,1.201c0.434-1.183,1.211-1.709,2.287-2.364
								c1.076-0.655,2.239-1.215,3.108-2.128C265.831,180.601,266.73,178.628,266.54,177.115z"/>
						</g>
					</g>
					<g>
						<g>
							<path style="fill:#283474;" d="M247.157,248.904c0.162,1.405,0.335,2.862,1.077,4.065c0.742,1.204,2.231,2.073,3.576,1.637
								c1.09-0.353,1.793-1.466,1.994-2.594c0.201-1.128-0.01-2.285-0.22-3.411c-2.24-12.006-4.481-24.012-6.721-36.018
								c-1.691,0.602-3.559,0.698-5.303,0.273C243.897,224.792,245.764,236.82,247.157,248.904z"/>
						</g>
						<g>
							<g>
								<path style="fill:#FC9F91;" d="M293.729,238.621c-2.378,2.933-3.327,4.594-6.812,8.08c-0.63,0.63-2.755,2.633-3.644,2.693
									c-2.452,0.165-4.436-2.06-6.971-4.594c-9.776-11.35-16.051-20.736-21.465-31.109c-1.225-3.406-2.449-6.812-3.674-10.218
									c-0.392-1.091-0.807-2.218-1.62-3.044c-1.619-1.645-4.345-1.67-6.386-2.639c-1.195-0.568-2.605-0.331-3.613,0.526
									c-0.761,0.647-1.541,1.27-2.339,1.87c-1.198,0.9-1.778,2.471-1.234,3.868c0.613,1.574,0.197,4.337-0.899,5.778
									c-0.18,0.237-0.236,0.553-0.16,0.841c0.52,1.969,1.59,2.843,3.381,4.129c1.941,1.394,3.491,2.195,5.164,3.902
									c0.41,0.418,1.066,0.919,1.794,1.393c0.66,0.43,0.969,4.598,1.16,5.464c0.443,2.01,0.906,4.015,1.398,6.013
									c4.001,16.234,10.136,34.031,24.86,43.591c0.986,0.641,2.001,1.238,3.038,1.791c1,0.533,2.054,1.037,3.184,1.115
									c1.717,0.118,3.228-0.951,4.805-1.641c11.377-4.979,21.16-12.473,27.485-22.287
									C306.038,250.861,298.367,242.583,293.729,238.621z"/>
							</g>
							<g>
								<path style="fill:#FAB01E;" d="M284.43,242.178c-0.728,1.067-0.791,2.442-0.768,3.733
									c0.113,6.289,1.795,12.703,5.682,17.649c3.888,4.945,10.181,8.199,16.435,7.519c-0.413-1.798,0.637-3.601,1.834-5.005
									c1.197-1.404,2.627-2.706,3.217-4.454c0.526-1.556,0.308-3.263-0.062-4.863c-2.345-10.151-11.064-18.531-21.3-20.471
									c0.431,1.311-0.609,2.655-1.752,3.427C286.572,240.486,285.207,241.038,284.43,242.178z"/>
							</g>
							<g>
								<path style="fill:#E45348;" d="M321.577,242.518c4.08-5.91,8.212-11.874,10.866-18.547
									c2.654-6.673,3.732-14.223,1.539-21.062c-2.193-6.838-8.121-12.715-15.26-13.493l-4.936-0.366
									c-5.727,2.08-9.959,7.158-12.399,12.74c-2.44,5.582-3.325,11.699-4.182,17.731c-0.857,6.032-1.734,12.149-4.161,17.737
									c-1.327,3.056-3.661,4.279-5.494,7.068c0.877,5.141,3.875,11.857,6.9,16.092c3.525,4.112,8.702,6.553,14.11,7.24
									c0.76-2.175,1.44-4.395,2.261-6.533C313.398,254.42,317.498,248.428,321.577,242.518z"/>
							</g>
						</g>
						<g>
							<path style="fill:#283474;" d="M234.275,188.093c-1.232-2.014-1.985-4.29-2.615-6.45c-2.816-9.658-3.506-18.554-2.058-26.47
								c0.167-0.001,0.335-0.006,0.501-0.019c0.262-0.02,0.458-0.248,0.438-0.51c-0.02-0.262-0.24-0.454-0.51-0.438
								c-0.077,0.006-0.156-0.002-0.234,0.001c0.044-0.215,0.084-0.432,0.131-0.645l-0.927-0.208
								c-0.061,0.271-0.111,0.547-0.167,0.82c-2.04-0.213-4.101-1.325-5.695-3.135c-1.512-1.717-2.623-3.932-3.601-7.182
								c-1.851-6.148-2.379-12.668-2.889-18.975c-0.012-0.155-0.101-0.294-0.235-0.373c-0.135-0.078-0.3-0.085-0.441-0.019
								c-1.677,0.786-3.835,0.583-5.631-0.531c-1.55-0.962-2.852-2.573-3.765-4.659c-0.803-1.836-1.239-3.814-1.686-6.024
								c-0.046-0.227-0.263-0.394-0.48-0.381c-0.232,0.007-0.424,0.18-0.456,0.409c-0.285,2.029-0.863,4.001-1.721,5.861
								c-0.15,0.324-0.331,0.682-0.601,0.828c-0.098,0.053-0.246,0.059-0.352,0.014c-0.026-0.011-0.071-0.035-0.08-0.068
								c-0.07-0.254-0.333-0.403-0.584-0.332c-0.253,0.069-0.402,0.331-0.332,0.584c0.085,0.311,0.306,0.556,0.623,0.691
								c0.375,0.16,0.826,0.14,1.179-0.052c0.525-0.285,0.797-0.803,1.01-1.266c0.569-1.234,1.021-2.516,1.351-3.83
								c0.327,1.385,0.709,2.69,1.259,3.947c0.99,2.263,2.42,4.022,4.134,5.086c1.854,1.151,4.059,1.45,5.912,0.833
								c0.5,6.155,1.058,12.497,2.874,18.531c1.02,3.387,2.192,5.712,3.798,7.537c1.729,1.963,3.975,3.19,6.222,3.452
								c-1.447,8.035-0.745,17.035,2.1,26.79c0.648,2.223,1.426,4.571,2.717,6.68c0.995,1.626,2.741,3.792,5.408,4.88l0.359-0.88
								C236.804,191.599,235.196,189.597,234.275,188.093z"/>
							<g>
								<g>
									<path style="fill:#283474;" d="M246.472,184.738c-0.976,0.05-4.05,0.208-5.026,0.258c-2.008,0.103-3.356,3.544-3.012,7.686
										c0.345,4.141,2.252,7.415,4.26,7.312c0.976-0.05,4.05-0.208,5.026-0.258c2.008-0.103,3.356-3.544,3.012-7.686
										C250.388,187.909,248.48,184.635,246.472,184.738z"/>
								</g>
								<path style="fill:#283474;" d="M248.959,190.14l3.58-0.488c0.519-0.071,1.003,0.274,1.106,0.787l3.467,17.223
									c0.119,0.589-0.31,1.148-0.91,1.186l-0.02,0.001c-0.487,0.03-0.924-0.298-1.03-0.774l-2.982-13.365
									c-0.116-0.521-0.624-0.856-1.148-0.759l-1.427,0.264c-0.551,0.102-1.077-0.272-1.161-0.827l-0.321-2.117
									C248.03,190.724,248.411,190.215,248.959,190.14z"/>
								<path style="fill:#283474;" d="M259.758,208.559c-0.589,0.073-1.17,0.238-1.764,0.232c-0.594-0.007-1.234-0.229-1.533-0.742
									c-0.311-0.535-0.153-1.253,0.253-1.719c0.406-0.466,1.01-0.716,1.615-0.845c0.605-0.129,1.227-0.154,1.837-0.257
									c0.787-0.133,1.561-0.397,2.359-0.373s1.663,0.434,1.891,1.198c0.195,0.654-0.15,1.382-0.692,1.796
									c-0.542,0.415-1.241,0.567-1.922,0.617C261.122,208.516,260.435,208.475,259.758,208.559z"/>
							</g>
							<g>
								<path style="fill:#283474;" d="M243.288,205.818c1.491,0,2.632-1.347,2.362-2.813c-2.836-15.415-7.788-32.723-12.955-47.739
									c-5.553-16.139-10.791-27.738-21.774-39.038c-1.381-1.421-3.753-3.305-5.623-3.414c-3.221-0.187-4.739,2.726-4.535,7.89
									h0.519c0,0-0.206-8.196,4.246-7.086c4.452,1.109,14.118,15.832,19.113,28.111c8.821,21.68,14.553,51.395,16.231,62.074
									c0.183,1.165,1.187,2.017,2.366,2.017H243.288z"/>
							</g>
						</g>
					</g>
				</g>
			</g>
			<g>
				<g>
					<g>
						<path style="fill:#FAB01E;" d="M221.077,281.017c0,0-10.099-1.913-16.219-3.902c0,0,13.006-29.99,13.465-39.018l21.881,11.476
							C240.204,249.573,225.974,263.803,221.077,281.017z"/>
					</g>
					<g>
						<polygon style="fill:#FFFFFF;" points="232.553,230.523 227.504,233.048 211.667,272.295 219.7,280.902 221.077,281.017 
													"/>
					</g>
					<g>
						<path style="fill:#283474;" d="M232.553,230.523l7.65,19.05c0,0-16.143,20.427-19.126,31.444l-9.41-8.722
							C211.667,272.295,226.127,249.803,232.553,230.523z"/>
					</g>
				</g>
				<g>
					<g>
						<path style="fill:#E45348;" d="M172.578,304.76c4.944-0.721,9.981-0.801,14.945-0.236c2.325,0.265,4.781,0.741,6.481,2.349
							c1.773,1.677,2.356,4.241,2.643,6.664c0.369,3.118,0.39,6.277,0.064,9.399l-21.934-0.041
							C173.755,316.991,172.269,310.746,172.578,304.76z"/>
					</g>
					<g>
						<path style="fill:#111A32;" d="M129.594,322.901c1.803,3.326,4.173,6.532,7.582,8.414c4.106,2.266,9.232,2.31,13.837,1.206
							c4.606-1.104,8.843-3.251,13.119-5.215c4.733-2.174,9.652-2.438,15.183-3.76c-1.586-5.679-2.777-13.769-2.156-19.613
							c-7.639-0.168-15.315-0.135-22.872,0.933c-7.557,1.069-15.027,3.207-21.534,7.004c-1.916,1.118-3.859,2.525-4.504,4.569
							C127.568,318.596,128.508,320.897,129.594,322.901z"/>
					</g>
				</g>
				<g>
					<g>
						<g>
							<path style="fill:#FC9F91;" d="M174.024,228.384c-0.292-0.591-0.81-1.034-1.317-1.455c-2.346-1.945-4.773-3.792-7.272-5.536
								c-0.128,7.279-3.422,14.448-8.861,19.286c4.522,0.864,8.883,2.564,12.796,4.99c0.556-4.454,1.867-8.812,3.861-12.833
								C173.927,231.433,174.717,229.789,174.024,228.384z"/>
						</g>
						<g>
							<path style="fill:#FC9F91;" d="M181.987,204.881c-3.861-3.009-8.992-3.814-13.717-2.829
								c-8.956,1.868-16.08,10.507-14.184,19.829c1.193,5.866,5.933,10.861,11.729,12.36c1.162,0.3,2.517,0.738,3.663,1.094
								c1.848,0.574,1.379,0.974,3.195,1.644c3.128,1.154,7.504,1.708,10.626,0.541c1.181-0.441,2.399-2.014,2.999-3.299
								c0.723-1.55,0.842-2.242,1.028-3.47c0.214-1.414,0.208-1.761,0.985-2.57c0.689-0.718,1.33-0.627,1.658-1.567
								c0.363-1.042-0.652-1.987-1.29-2.887c-1.558-2.201-0.982-5.18-1.081-7.875C187.442,211.614,185.332,207.488,181.987,204.881z
								"/>
						</g>
						<g>
							<path style="fill:#E45348;" d="M177.829,218.887c0.791-2.562,1.204-5.456-0.029-7.837c-1.396-2.694-4.486-3.993-7.386-4.886
								c-2.679-0.825-5.467-1.491-8.261-1.268c-3.663,0.292-7.17,2.184-9.425,5.085c-2.255,2.901-3.224,6.766-2.604,10.387
								c0.631,3.687,2.781,6.93,5.138,9.835c0.844,1.041,1.752,2.079,2.94,2.699c1.48,0.772,3.242,0.811,4.891,0.548
								c3.594-0.574,6.903-2.507,9.413-5.142C175.015,225.672,176.755,222.364,177.829,218.887z"/>
						</g>
						<g>
							<path style="fill:#FC9F91;" d="M178.564,219.223c-0.455-0.906-1.01-1.784-1.786-2.438c-0.775-0.654-1.798-1.065-2.804-0.934
								c-0.969,0.127-1.823,0.74-2.43,1.506c-1.054,1.331-1.434,3.19-0.911,4.805c0.523,1.615,1.961,2.918,3.634,3.206
								c1.673,0.288,3.5-0.493,4.387-1.941L178.564,219.223z"/>
						</g>
						<g>
							<path style="fill:#E45348;" d="M191.373,200.542c-0.447,1.484-1.723,2.689-3.23,3.051c1.656,0.26,3.405-0.124,4.8-1.055
								c-0.915,3.187-2.913,6.063-5.617,7.984c-2.703,1.921-6.099,2.862-9.4,2.547c-4.026-0.384-7.64-2.518-11.163-4.506
								c-3.523-1.987-8.25-0.367-13.194,0.71c-1.206-2.891,4.85-9.925,13.277-10.797c4.199-0.434,7.243,0.193,11.3,1.36
								c2.107,0.606,4.615,1.63,6.8,1.807C187.133,201.82,189.634,201.877,191.373,200.542z"/>
						</g>
					</g>
					<g>
						<g>
							<path style="fill:#283474;" d="M186.991,213.938c-0.255-0.374-0.419-0.809-0.476-1.258c-2.08,0.824-3.697,2.728-4.174,4.914
								c0.25,0.142,0.462,0.35,0.608,0.599C183.611,216.288,185.123,214.697,186.991,213.938z"/>
						</g>
						<g>
							<path style="fill:#283474;" d="M185.8,222.452c0.361-0.084,0.492-0.523,0.536-0.891c0.054-0.453,0.074-0.91,0.06-1.365
								c-0.006-0.204-0.021-0.413-0.105-0.599c-0.084-0.186-0.251-0.347-0.454-0.368c-0.387-0.041-0.638,0.399-0.733,0.777
								c-0.116,0.463-0.161,0.944-0.133,1.421c0.015,0.251,0.053,0.51,0.19,0.722C185.298,222.359,185.555,222.509,185.8,222.452z"
								/>
						</g>
						<g>
							<path style="fill:#FFFFFF;" d="M184.848,231.951c0.589-0.289,0.911-0.983,0.874-1.637c-1.459,0.285-3.05-0.248-4.042-1.355
								c0.13,0.545,0.261,1.094,0.496,1.603c0.235,0.508,0.584,0.98,1.065,1.268C183.722,232.117,184.345,232.198,184.848,231.951z"
								/>
						</g>
					</g>
				</g>
				<g>
					<g>
						<path style="fill:#FAB01E;" d="M144.154,245.631c-4.547,3.44-7.499,8.563-9.9,13.734
							c-7.732,16.655-10.969,35.371-9.277,53.655c3.978,23.913,29.353-7.761,44.539-7.029c-6.092-28.056,2.782-29.54,6.84-46.726
							c2.185-9.255-4.654-18.332-14.159-18.625c-0.063-0.002-0.126-0.004-0.189-0.005
							C155.71,240.468,149.178,241.83,144.154,245.631z"/>
					</g>
					<g>
						<path style="fill:#E45348;" d="M121.933,317.976c0.367,0.649,1.005,1.107,1.394,1.743c0.52,0.851,0.534,1.903,0.739,2.878
							c0.357,1.695,1.354,3.248,2.746,4.278c0.241,0.178,0.531,0.349,0.822,0.279c0.35-0.084,0.526-0.464,0.659-0.798
							c3.16-7.965,8.996-14.732,16.02-19.641c7.024-4.909,15.2-8.024,23.59-9.769c0.584-0.43,0.429-1.414-0.118-1.89
							c-0.547-0.476-1.315-0.579-2.037-0.65c-8.269-0.806-16.779,0.049-24.475,3.177c-7.696,3.129-14.533,8.619-18.644,15.838
							C121.832,314.82,121.14,316.575,121.933,317.976z"/>
					</g>
					<g>
						<path style="fill:#283474;" d="M150.468,249.18c-3.515,4.962-3.247,12.075,0.048,17.186c3.295,5.111,9.218,8.222,15.27,8.816
							C157.24,269.284,151.484,259.513,150.468,249.18z"/>
					</g>
					<g>
						<path style="fill:#283474;" d="M172.603,249.475c-0.472,0.456-1.231-0.011-1.719-0.449c-4.246-3.807-9.863-6.051-15.563-6.217
							c-1.344-0.039-2.894-0.057-3.739-1.102c1.645-2.164,4.416-3.279,7.133-3.373c2.717-0.094,5.392,0.728,7.869,1.848
							c1.787,0.808,3.54,1.806,4.81,3.3c1.27,1.494,1.991,3.565,1.478,5.457C172.819,249.135,172.748,249.334,172.603,249.475z"/>
					</g>
				</g>
				<g>
					<g>
						<path style="fill:#E45348;" d="M214.181,344.466c2.306,0.067,4.587,0.493,6.888,0.653c2.301,0.16,4.69,0.036,6.782-0.934
							c1.152-0.534,2.299-1.543,2.212-2.81c-0.078-1.133-1.113-1.954-2.14-2.439c-2.354-1.112-5.055-1.244-7.651-1.042
							c-2.596,0.202-5.163,0.719-7.764,0.83c-4.189,0.18-8.363-0.694-12.554-0.612c-1.164,0.023-2.361,0.129-3.401,0.653
							c-1.04,0.524-1.896,1.551-1.914,2.715c-0.015,1.009,0.601,1.951,1.421,2.539c0.82,0.588,1.82,0.868,2.814,1.041
							C203.918,345.938,209.063,344.317,214.181,344.466z"/>
					</g>
					<g>
						<path style="fill:#FC9F91;" d="M229.372,339.687c-0.272-2.121-3.078-2.667-6.558-3.985c-4.657-1.764-5.795-2.702-9.632-5.151
							c-4.975-3.176-6.664-7.292-8.574-12.067c-5.081-12.702-5.946-14.178-10.02-24.556c-0.851-2.167-4.246-7.954-6.285-9.077
							c-6.847-3.769-14.951-1.08-21.466,2.077c-1.013,0.491-2.017,1.001-3.016,1.52c2.136,7.987,5.045,15.655,8.375,23.076
							c0.439-0.406,0.889-0.813,1.364-1.225c1.205-1.046,5.082-4.606,6.633-4.234c1.395,0.335,1.976,2.964,3.387,5.786
							c2.503,5.005,4.549,7.067,7.621,11.714c2.467,3.731,6.595,8.661,4.545,12.908c-0.408,0.846-0.608,1.777-0.503,2.71
							c0.321,2.836,1.742,4.529,13.176,3.752c12.267-0.834,8.712,1.555,19.556-1.254C228.866,341.45,229.489,340.6,229.372,339.687z
							"/>
					</g>
					<g>
						<path style="fill:#283474;" d="M145.481,298.241c-4.963,2.358-9.933,4.92-14.119,8.53c-4.507,3.886-4.17,9.793-3.987,15.74
							c0.212,6.866,7.231,12.407,13.738,12.273c12.53-0.257,13.624-6.268,18.898-10.937c4.84-4.285,8.283-8.28,13.617-11.78
							c-3.33-7.421-6.614-16.43-8.75-24.417C158.736,290.841,151.75,295.263,145.481,298.241z"/>
					</g>
				</g>
				<g>
					<g>
						<path style="fill:#FC9F91;" d="M224.675,258.799c0.408-0.292,0.84-0.572,1.133-0.979c0.293-0.407,0.416-0.985,0.15-1.41
							c-0.323-0.515-1.03-0.59-1.637-0.611c-1.478-0.05-2.968-0.099-4.424,0.154c-1.457,0.253-2.896,0.833-3.938,1.882
							c-0.895,0.901-1.415,2.066-1.704,3.312c-4.486,2.641-9.051,5.252-14.061,6.642c-5.254,1.458-11.144,1.442-15.888-1.247
							c-0.628-0.356-1.217-0.764-1.789-1.193c-3.843,5.249-8.529,9.836-13.677,13.877c0.834,0.559,1.681,1.099,2.555,1.599
							c5.716,3.268,12.393,5.129,18.926,4.31c9.86-1.236,17.764-8.095,25.456-14.585c0.564,0.067,1.129,0.182,1.689,0.269
							c1.136,0.177,2.393,0.21,3.331-0.455c1.01-0.716,1.457-2.116,2.591-2.616c0.431-0.19,0.972-0.263,1.209-0.67
							c0.314-0.538-0.146-1.184-0.23-1.801c-0.096-0.703,0.31-1.362,0.647-1.986c0.337-0.624,0.618-1.393,0.286-2.02
							c-0.359-0.679-1.38-1.138-1.153-1.872C224.226,259.139,224.454,258.957,224.675,258.799z"/>
					</g>
					<g>
						<path style="fill:#283474;" d="M172.364,276.298c-1.148,1.006-2.323,1.983-3.527,2.928c0.834,0.559,1.681,1.099,2.555,1.599
							c5.716,3.268,12.393,5.129,18.926,4.31c6.898-0.864,12.837-4.484,18.418-8.801
							C196.69,284.268,183.063,286.432,172.364,276.298z"/>
					</g>
					<g>
						<path style="fill:#E45348;" d="M182.515,265.349c-3.062-2.298-5.385-5.538-7.562-8.732c-2.584-3.79-5.214-7.727-9.055-10.236
							c-3.84-2.509-9.271-3.21-12.88-0.377c-3.287,2.581-4.139,7.396-3.055,11.432c1.084,4.036,3.748,7.444,6.515,10.577
							c3.692,4.18,8.298,8.919,12.921,12.014C174.548,275.985,178.672,270.597,182.515,265.349z"/>
					</g>
				</g>
				<g>
					<g>
						<g>
							<path style="fill:#283474;" d="M191.115,193.266c-2.735-4.677-12.911-2.032-16.954-1.136
								c-5.819,1.29-11.432,3.513-16.546,6.576c-4.319,2.587-9.66,5.86-11.902,10.561c-1.732,3.632-1.533,8.685,0.611,12.093
								c0.737,1.171,1.715,2.176,2.897,2.901c3.722,2.284,8.531,1.547,12.677,0.179c12.206-4.028,22.678-13.057,28.46-24.536
								C191.406,197.827,192.29,195.275,191.115,193.266z"/>
						</g>
						<g>
							<path style="fill:#283474;" d="M170.973,186.215c-7.853-1.89-16.694,1.353-21.463,7.872
								c-4.608,6.301-4.915,15.962,0.577,21.51c0.884,0.894,1.898,1.67,3.035,2.205c3.988,1.876,8.761,0.513,12.63-1.599
								c4.96-2.707,9.258-6.617,12.422-11.298c1.775-2.626,3.236-5.685,2.947-8.841C180.662,191.05,175.868,187.394,170.973,186.215
								z"/>
						</g>
					</g>
					<g>
						<path style="fill:#FAB01E;" d="M178.137,206.064c-3.57,5.499-8.822,9.992-15.014,12.147c-3.125,1.088-6.595,1.565-9.733,0.517
							c-3.139-1.048-5.817-3.889-5.935-7.196c1.056,2.275,3.549,3.64,6.044,3.901c2.495,0.26,4.995-0.428,7.33-1.344
							c4.879-1.914,9.349-4.864,13.027-8.598c1.792-1.819,3.41-3.842,4.514-6.145c1.104-2.302,1.674-4.904,1.326-7.434
							c1.451,2.063,1.819,4.755,1.394,7.241C180.665,201.641,179.51,203.948,178.137,206.064z"/>
					</g>
				</g>
			</g>
		</g>
	</g>
</g>
</svg>
