<svg width="16" height="13" viewBox="0 0 16 13" fill="none" xmlns="http://www.w3.org/2000/svg">
<path fill-rule="evenodd" clip-rule="evenodd" d="M0.0641183 6.19332C0.0614236 5.94 0.15119 5.69607 0.313669 5.5152C0.476148 5.33432 0.69803 5.23132 0.930505 5.22884L12.8399 5.10216L9.62407 1.67194C9.46731 1.49252 9.38047 1.25393 9.38184 1.00644C9.38322 0.758948 9.4727 0.521874 9.63143 0.345164C9.79017 0.168455 10.0058 0.0659069 10.2328 0.0591253C10.4598 0.0523437 10.6806 0.141858 10.8486 0.308809L15.5777 5.35325C15.7437 5.53059 15.8385 5.77238 15.8412 6.0255C15.8439 6.27862 15.7543 6.52236 15.592 6.7032L10.9713 11.8471C10.8069 12.0176 10.5881 12.1118 10.361 12.1098C10.1339 12.1079 9.91613 12.0099 9.75367 11.8366C9.59121 11.6633 9.49671 11.4282 9.49007 11.1808C9.48343 10.9334 9.56518 10.693 9.71808 10.5103L12.8602 7.01247L0.950826 7.13916C0.718351 7.14163 0.494328 7.04337 0.328038 6.86599C0.161748 6.68861 0.0668129 6.44665 0.0641183 6.19332Z" fill="#8B572A"/>
</svg>
