<svg width="27" height="21" viewBox="0 0 27 21" fill="none" xmlns="http://www.w3.org/2000/svg">
<path d="M13.7931 4.154C13.7146 4.09559 13.6101 4.06299 13.5015 4.06299C13.3928 4.06299 13.2884 4.09559 13.2099 4.154L3.50146 11.3674C3.46023 11.3981 3.42743 11.435 3.40504 11.4758C3.38266 11.5166 3.37115 11.5605 3.37121 11.6049L3.36963 18.3749C3.36963 18.723 3.54742 19.0569 3.86389 19.303C4.18035 19.5492 4.60958 19.6874 5.05713 19.6874H10.1249C10.3487 19.6874 10.5633 19.6183 10.7215 19.4952C10.8798 19.3722 10.9687 19.2052 10.9687 19.0312V13.4531C10.9687 13.366 11.0131 13.2826 11.0922 13.221C11.1713 13.1595 11.2786 13.1249 11.3905 13.1249H15.6093C15.7212 13.1249 15.8285 13.1595 15.9076 13.221C15.9867 13.2826 16.0312 13.366 16.0312 13.4531V19.0312C16.0312 19.2052 16.12 19.3722 16.2783 19.4952C16.4365 19.6183 16.6511 19.6874 16.8749 19.6874H21.9406C22.3881 19.6874 22.8173 19.5492 23.1338 19.303C23.4503 19.0569 23.6281 18.723 23.6281 18.3749V11.6049C23.6281 11.5605 23.6166 11.5166 23.5942 11.4758C23.5718 11.435 23.539 11.3981 23.4978 11.3674L13.7931 4.154Z" fill="#F8F8F8"/>
<path d="M25.8879 10.014L21.9433 7.07889V2.625C21.9433 2.45095 21.8544 2.28403 21.6962 2.16096C21.538 2.03789 21.3233 1.96875 21.0996 1.96875H18.5683C18.3445 1.96875 18.1299 2.03789 17.9717 2.16096C17.8135 2.28403 17.7246 2.45095 17.7246 2.625V3.9375L14.6702 1.66605C14.3844 1.44129 13.9593 1.3125 13.5 1.3125C13.0423 1.3125 12.6183 1.44129 12.3325 1.66646L1.11588 10.0131C0.787872 10.2592 0.746739 10.6641 1.04522 10.9307C1.12017 10.998 1.21194 11.0527 1.31495 11.0915C1.41796 11.1303 1.53005 11.1525 1.6444 11.1565C1.75876 11.1606 1.87298 11.1465 1.98011 11.1152C2.08725 11.0838 2.18506 11.0358 2.2676 10.9741L13.21 2.84156C13.2885 2.78315 13.393 2.75055 13.5016 2.75055C13.6103 2.75055 13.7147 2.78315 13.7932 2.84156L24.7367 10.9741C24.8979 11.0944 25.1138 11.16 25.3371 11.1566C25.5604 11.1532 25.7729 11.0811 25.9279 10.9561C26.2517 10.6952 26.2248 10.2646 25.8879 10.014Z" fill="#F8F8F8"/>
</svg>
