<svg width="16" height="23" viewBox="0 0 16 23" fill="none" xmlns="http://www.w3.org/2000/svg">
<path d="M0 22.2122H15.625V18.2646C15.6233 16.7994 15.0466 15.3946 14.0214 14.3585C12.9962 13.3225 11.6061 12.7397 10.1562 12.738H5.46875C4.01886 12.7397 2.62882 13.3225 1.60359 14.3585C0.578356 15.3946 0.00165419 16.7994 0 18.2646V22.2122ZM2.34375 5.63233C2.34375 6.7254 2.66449 7.79391 3.2654 8.70276C3.86631 9.61161 4.72042 10.32 5.7197 10.7383C6.71898 11.1566 7.81857 11.266 8.8794 11.0528C9.94023 10.8395 10.9147 10.3132 11.6795 9.54024C12.4443 8.76733 12.9652 7.78258 13.1762 6.71052C13.3872 5.63846 13.2789 4.52725 12.865 3.51739C12.451 2.50753 11.7501 1.64439 10.8508 1.03712C9.95144 0.429844 8.89412 0.105713 7.8125 0.105713C6.3621 0.105713 4.9711 0.68798 3.94551 1.72442C2.91992 2.76086 2.34375 4.16658 2.34375 5.63233Z" fill="#F8F8F8"/>
</svg>
