<svg width="49" height="49" viewBox="0 0 49 49" fill="none" xmlns="http://www.w3.org/2000/svg">
<path d="M24.5021 4.08325C13.2219 4.08325 4.08545 13.2197 4.08545 24.4999C4.08299 28.7857 5.43009 32.9634 7.93565 36.4405C10.4412 39.9176 13.978 42.5174 18.0443 43.8713C19.0652 44.0489 19.449 43.4364 19.449 42.8994C19.449 42.4155 19.4225 40.8087 19.4225 39.0978C14.2938 40.0431 12.9667 37.8483 12.5584 36.6989C12.3277 36.1109 11.3334 34.2999 10.4657 33.814C9.75108 33.4322 8.73024 32.4869 10.4391 32.4624C12.048 32.4359 13.1954 33.9426 13.5792 34.5551C15.4167 37.6421 18.3506 36.7744 19.5245 36.2395C19.7042 34.9124 20.2391 34.0202 20.8271 33.5098C16.2844 32.9994 11.5375 31.2374 11.5375 23.428C11.5375 21.2067 12.3277 19.3713 13.6302 17.9421C13.4261 17.4317 12.7115 15.339 13.8344 12.5317C13.8344 12.5317 15.5433 11.9947 19.449 14.6223C21.1111 14.1617 22.8284 13.9302 24.5532 13.9343C26.2886 13.9343 28.024 14.163 29.6573 14.6223C33.563 11.9682 35.2719 12.5317 35.2719 12.5317C36.3948 15.339 35.6802 17.4317 35.4761 17.9421C36.7766 19.3713 37.5688 21.1822 37.5688 23.428C37.5688 31.264 32.7974 32.9994 28.2547 33.5098C28.9938 34.1468 29.6328 35.3718 29.6328 37.2869C29.6328 40.0166 29.6063 42.2114 29.6063 42.9015C29.6063 43.4364 29.9901 44.0734 31.011 43.8692C35.0633 42.5005 38.5845 39.8956 41.079 36.4211C43.5735 32.9465 44.9157 28.7772 44.9167 24.4999C44.9167 13.2197 35.7803 4.08325 24.5001 4.08325" fill="#F8F8F8"/>
</svg>
