<svg width="49" height="49" viewBox="0 0 49 49" fill="none" xmlns="http://www.w3.org/2000/svg">
<g opacity="0.7">
<path d="M26.5167 5C28.8136 5.00613 29.9793 5.01838 30.9859 5.04696L31.382 5.06125C31.8393 5.07758 32.2905 5.098 32.8356 5.1225C35.008 5.22458 36.4902 5.56758 37.7908 6.07188C39.1383 6.59046 40.2734 7.29279 41.4086 8.42592C42.4468 9.44654 43.2501 10.6811 43.7626 12.0438C44.2669 13.3443 44.6099 14.8265 44.712 17.0009C44.7365 17.544 44.7569 17.9952 44.7733 18.4546L44.7855 18.8507C44.8161 19.8552 44.8284 21.021 44.8325 23.3178L44.8345 24.8409V27.5155C44.8395 29.0047 44.8239 30.4939 44.7876 31.9827L44.7753 32.3788C44.759 32.8381 44.7386 33.2893 44.7141 33.8324C44.612 36.0068 44.2649 37.487 43.7626 38.7896C43.2516 40.153 42.4481 41.3878 41.4086 42.4074C40.3877 43.4452 39.1532 44.2485 37.7908 44.7615C36.4902 45.2658 35.008 45.6088 32.8356 45.7108C32.3512 45.7337 31.8666 45.7541 31.382 45.7721L30.9859 45.7843C29.9793 45.8129 28.8136 45.8272 26.5167 45.8313L24.9936 45.8333H22.3211C20.8312 45.8385 19.3413 45.8228 17.8518 45.7864L17.4558 45.7741C16.9711 45.7558 16.4865 45.7347 16.0021 45.7108C13.8298 45.6088 12.3475 45.2658 11.0449 44.7615C9.68246 44.2498 8.44837 43.4463 7.42914 42.4074C6.39002 41.3872 5.58597 40.1525 5.07305 38.7896C4.56876 37.489 4.22576 36.0068 4.12368 33.8324C4.10093 33.348 4.08051 32.8634 4.06243 32.3788L4.05222 31.9827C4.0146 30.4939 3.99758 29.0047 4.00118 27.5155V23.3178C3.99548 21.8286 4.01045 20.3394 4.04609 18.8507L4.06039 18.4546C4.07672 17.9952 4.09714 17.544 4.12164 17.0009C4.22372 14.8265 4.56672 13.3463 5.07101 12.0438C5.5837 10.6797 6.38936 9.44476 7.43118 8.42592C8.45016 7.38768 9.68343 6.58431 11.0449 6.07188C12.3475 5.56758 13.8277 5.22458 16.0021 5.1225C16.5452 5.098 16.9984 5.07758 17.4558 5.06125L17.8518 5.049C19.3406 5.01273 20.8298 4.99707 22.319 5.00204L26.5167 5ZM24.4178 15.2083C21.7104 15.2083 19.1139 16.2839 17.1995 18.1983C15.285 20.1127 14.2095 22.7093 14.2095 25.4167C14.2095 28.1241 15.285 30.7206 17.1995 32.6351C19.1139 34.5495 21.7104 35.625 24.4178 35.625C27.1253 35.625 29.7218 34.5495 31.6362 32.6351C33.5507 30.7206 34.6262 28.1241 34.6262 25.4167C34.6262 22.7093 33.5507 20.1127 31.6362 18.1983C29.7218 16.2839 27.1253 15.2083 24.4178 15.2083ZM24.4178 19.2917C25.2222 19.2915 26.0187 19.4498 26.7619 19.7575C27.505 20.0652 28.1803 20.5163 28.7492 21.0849C29.318 21.6536 29.7693 22.3287 30.0772 23.0718C30.3852 23.8149 30.5437 24.6113 30.5439 25.4156C30.544 26.22 30.3857 27.0165 30.078 27.7597C29.7703 28.5028 29.3193 29.1781 28.7506 29.747C28.182 30.3158 27.5068 30.7671 26.7637 31.075C26.0207 31.383 25.2242 31.5415 24.4199 31.5417C22.7954 31.5417 21.2375 30.8964 20.0889 29.7477C18.9402 28.599 18.2949 27.0411 18.2949 25.4167C18.2949 23.7922 18.9402 22.2343 20.0889 21.0856C21.2375 19.937 22.7954 19.2917 24.4199 19.2917M35.1386 12.1458C34.4618 12.1458 33.8126 12.4147 33.334 12.8933C32.8554 13.3719 32.5865 14.0211 32.5865 14.6979C32.5865 15.3748 32.8554 16.0239 33.334 16.5025C33.8126 16.9811 34.4618 17.25 35.1386 17.25C35.8155 17.25 36.4646 16.9811 36.9432 16.5025C37.4218 16.0239 37.6907 15.3748 37.6907 14.6979C37.6907 14.0211 37.4218 13.3719 36.9432 12.8933C36.4646 12.4147 35.8155 12.1458 35.1386 12.1458Z" fill="#F8F8F8"/>
</g>
</svg>
