<svg width="49" height="50" viewBox="0 0 49 50" fill="none" xmlns="http://www.w3.org/2000/svg">
<g filter="url(#filter0_d_250_187)">
<path d="M24.9148 9C26.0051 9.00612 28.7328 9.03267 31.6319 9.14904L32.6609 9.19396C35.5785 9.33075 38.494 9.56758 39.9415 9.96979C41.8709 10.5129 43.3858 12.0931 43.8983 14.098C44.7149 17.283 44.817 23.4938 44.8293 24.9985L44.8313 25.3088V25.6641C44.817 27.1688 44.7149 33.3816 43.8983 36.5645C43.3797 38.5756 41.8627 40.1579 39.9415 40.6928C38.494 41.095 35.5785 41.3318 32.6609 41.4686L31.6319 41.5156C28.7328 41.6299 26.0051 41.6585 24.9148 41.6626L24.435 41.6646H23.9144C21.6073 41.6503 11.9584 41.5462 8.88775 40.6928C6.96042 40.1497 5.44346 38.5695 4.931 36.5645C4.11433 33.3795 4.01225 27.1688 4 25.6641V24.9985C4.01225 23.4938 4.11433 17.281 4.931 14.098C5.44958 12.087 6.96654 10.5047 8.88979 9.97183C11.9584 9.11637 21.6094 9.01225 23.9165 9H24.9148ZM20.3313 18.1875V32.4792L32.5813 25.3333L20.3313 18.1875Z" fill="#F8F8F8"/>
</g>
<defs>
<filter id="filter0_d_250_187" x="-4" y="0" width="57" height="57" filterUnits="userSpaceOnUse" color-interpolation-filters="sRGB">
<feFlood flood-opacity="0" result="BackgroundImageFix"/>
<feColorMatrix in="SourceAlpha" type="matrix" values="0 0 0 0 0 0 0 0 0 0 0 0 0 0 0 0 0 0 127 0" result="hardAlpha"/>
<feOffset dy="4"/>
<feGaussianBlur stdDeviation="2"/>
<feComposite in2="hardAlpha" operator="out"/>
<feColorMatrix type="matrix" values="0 0 0 0 0 0 0 0 0 0 0 0 0 0 0 0 0 0 0.25 0"/>
<feBlend mode="normal" in2="BackgroundImageFix" result="effect1_dropShadow_250_187"/>
<feBlend mode="normal" in="SourceGraphic" in2="effect1_dropShadow_250_187" result="shape"/>
</filter>
</defs>
</svg>
