<svg width="51" height="24" viewBox="0 0 51 24" fill="none" xmlns="http://www.w3.org/2000/svg">
<path d="M2 2C2 5.92916 3.2062 9.55497 5.24162 12.4717L5.23708 12.4741C3.20442 15.3897 2 19.0131 2 22.9392C6.656 22.1019 10.3442 18.9293 11.4112 14.8747L11.4165 14.8697C13.3898 19.4952 20.9418 22.9392 29.9569 22.9392C40.4741 22.9392 49 18.2518 49 12.4696C49 6.68743 40.4741 2 29.9569 2C20.9402 2 13.3871 5.44529 11.4155 10.0721L11.4227 10.0757C10.3843 6.05157 6.76621 2.88843 2.17722 2" stroke="black" stroke-width="2.07827" stroke-miterlimit="10" stroke-linecap="round" stroke-linejoin="round"/>
<path d="M38.2757 12.4696C39.1708 12.4696 39.8964 11.6884 39.8964 10.7247C39.8964 9.761 39.1708 8.97977 38.2757 8.97977C37.3806 8.97977 36.655 9.761 36.655 10.7247C36.655 11.6884 37.3806 12.4696 38.2757 12.4696Z" fill="black"/>
</svg>
