<svg width="48" height="51" viewBox="0 0 48 51" fill="none" xmlns="http://www.w3.org/2000/svg">
<path d="M41.9605 5.40933C40.679 4.0711 38.9943 3.24953 37.1991 3.0874C35.4038 2.92527 33.6116 3.43282 32.1338 4.52186C36.8842 6.61146 40.7648 10.4364 43.0671 15.2983C43.9558 13.7566 44.3297 11.9447 44.1291 10.152C43.9285 8.35942 43.165 6.68957 41.9605 5.40933Z" fill="black"/>
<path d="M15.2267 4.83181C13.755 3.59692 11.9064 2.97389 10.0297 3.08029C8.15305 3.18669 6.37816 4.01517 5.04002 5.40937C3.71292 6.82075 2.92694 8.70094 2.8334 10.6879C2.73986 12.6749 3.34537 14.6282 4.53335 16.1718C6.67273 11.1428 10.4748 7.11086 15.2267 4.83181Z" fill="black"/>
<path d="M21.8668 5.76155C18.3856 6.1912 15.0892 7.64762 12.3549 9.96414C9.62061 12.2807 7.55883 15.3637 6.40553 18.8604C5.25223 22.3571 5.054 26.1262 5.83353 29.7364C6.61307 33.3466 8.33886 36.6519 10.8134 39.2742L7.41342 42.8664C7.28998 42.9996 7.19258 43.1572 7.12678 43.3301C7.06098 43.5031 7.02806 43.6881 7.02992 43.8745C7.03178 44.0609 7.06837 44.245 7.1376 44.4165C7.20683 44.588 7.30736 44.7433 7.43342 44.8738C7.55949 45.0042 7.70864 45.1071 7.87235 45.1766C8.03607 45.2461 8.21113 45.2809 8.38757 45.2789C8.564 45.277 8.73834 45.2383 8.90063 45.1652C9.06292 45.092 9.20998 44.9858 9.33342 44.8526L12.8801 41.1055C16.1235 43.6986 20.0842 45.0924 24.1515 45.072C28.2188 45.0517 32.1668 43.6183 35.3868 40.9928L39.0401 44.8526C39.2952 45.0834 39.6233 45.204 39.9588 45.1903C40.2944 45.1766 40.6127 45.0297 40.8502 44.7788C41.0876 44.5279 41.2267 44.1916 41.2397 43.837C41.2527 43.4825 41.1385 43.1359 40.9201 42.8664L37.3334 39.1334C40.0249 36.2205 41.7973 32.499 42.4074 28.4797C43.0175 24.4603 42.4354 20.3399 40.741 16.6839C39.0466 13.0279 36.3229 10.0155 32.9436 8.05992C29.5643 6.10436 25.6951 5.30152 21.8668 5.76155ZM26.1068 42.1198C22.7929 42.5783 19.4263 41.929 16.4795 40.2629C13.5328 38.5968 11.1538 35.9976 9.67659 32.8302C8.19938 29.6627 7.69808 26.0861 8.24306 22.6023C8.78803 19.1185 10.3519 15.9024 12.7152 13.4056C15.0785 10.9087 18.1225 9.25644 21.42 8.68067C24.7174 8.10489 28.1027 8.63452 31.1007 10.1952C34.0988 11.7559 36.5589 14.2693 38.1359 17.3826C39.7129 20.4959 40.3275 24.0528 39.8934 27.5539C39.4355 31.2475 37.8357 34.6778 35.3426 37.3118C32.8495 39.9458 29.6027 41.636 26.1068 42.1198Z" fill="black"/>
<path d="M31.3176 31.6736L23.2376 27.4476V16.4034C23.2376 16.0672 23.1112 15.7447 22.8862 15.507C22.6611 15.2692 22.3559 15.1356 22.0376 15.1356C21.7194 15.1356 21.4142 15.2692 21.1891 15.507C20.9641 15.7447 20.8376 16.0672 20.8376 16.4034V29.0816L30.251 34.012C30.5374 34.1596 30.8676 34.1809 31.1689 34.0713C31.4702 33.9617 31.718 33.7301 31.8576 33.4274C31.9973 33.1248 32.0175 32.776 31.9137 32.4576C31.81 32.1393 31.5907 31.8775 31.3043 31.73L31.3176 31.6736Z" fill="black"/>
</svg>
